# xmcd
#
# Track frame offsets: 
#        150
#        14621
#        27669
#        41935
#        51607
#        64511
#        83075
#        98800
#        116204
#        134938
#        160378
#        175569
#        192412
#
# Disc length: 2720 seconds
#
# Revision: 0
# Processed by: cddbd v1.5.2PL0 Copyright (c) Steve Scherf et al.
# Submitted via: ExactAudioCopy v1.0b4
#
DISCID=c30a9e0d
DTITLE=Cecil Barfield - The George Mitchell Collection
DYEAR=1976
DGENRE=Blues
TTITLE0=Love Blues
TTITLE1=Sun Goin’ Down
TTITLE2=Tell Me Rider
TTITLE3=See What You Made Me Do
TTITLE4=Captain Has A Bulldog
TTITLE5=Lonesome Home Blues
TTITLE6=Lucy Mae Blues
TTITLE7=Big Legged Woman
TTITLE8=Five Long Years
TTITLE9=William Robertson Blues
TTITLE10=Talk to Your Daughter
TTITLE11=Root Blues
TTITLE12=I Told You Not To Do That
EXTD=
EXTT0=
EXTT1=
EXTT2=
EXTT3=
EXTT4=
EXTT5=
EXTT6=
EXTT7=
EXTT8=
EXTT9=
EXTT10=
EXTT11=
EXTT12=
PLAYORDER=
